<svg width="143" height="143" viewBox="0 0 143 143" version="1.1" xmlns="http://www.w3.org/2000/svg" xmlns:xlink="http://www.w3.org/1999/xlink"><defs><path id="path-1" d="M0 0h68.955v67.471H0z"></path></defs><g id="Page-1" stroke="none" stroke-width="1" fill="none" fill-rule="evenodd"><g id="Homepage_2" transform="translate(-491 -1114)"><g id="Group-7" transform="translate(494 1117)"><circle id="Oval-Copy-6" stroke="#006938" stroke-width="6" fill="#FFF" cx="68.5" cy="68.5" r="68.5"></circle><g id="Group-3" transform="translate(33 34)"><mask id="mask-2" fill="#fff"><use xlink:href="#path-1"></use></mask><path d="M47.292 28.81c-2.576 1.274-6.885 2.034-11.525 2.034-4.639 0-8.948-.76-11.524-2.034a1.448 1.448 0 00-1.95.688 1.5 1.5 0 00.675 1.988c2.998 1.482 7.664 2.332 12.8 2.332 5.135 0 9.8-.85 12.798-2.332a1.5 1.5 0 00.677-1.988 1.448 1.448 0 00-1.951-.688zm10.371 14.187c-1.326.168-2.656.188-3.955.206-2.838.037-5.52.072-7.69 1.679-.75.557-1.45 1.198-2.125 1.82-1.661 1.526-3.379 3.105-6.07 3.729-.794.183-1.61.273-2.431.273-2.428 0-4.913-.787-7.086-2.286-1.608-1.11-3.005-2.468-4.355-3.784-2.451-2.385-4.765-4.637-8.036-5.132-.778-.119-1.564-.093-2.367-.017l3.56 20.831c.013.085.02.17.02.255.15 1.172 6.668 3.926 18.621 3.926 11.955 0 18.471-2.754 18.621-3.928 0-.094.01-.186.028-.279l3.265-17.293zm3.113-.744l-3.49 18.483c-.28 5.322-14.162 6.735-21.537 6.735-7.381 0-21.283-1.415-21.536-6.75l-3.57-20.892c-.96.1-1.946.152-2.981.03-3.757-.443-5.615-2.354-6.513-3.878C-.318 33.49-.383 30.05.971 26.545a1.45 1.45 0 011.893-.839c.75.3 1.12 1.165.824 1.929-1.02 2.638-1.033 5.123-.036 6.816.815 1.384 2.278 2.21 4.345 2.454 1.18.14 2.38-.022 3.65-.191 1.49-.2 3.034-.406 4.697-.154 4.188.634 6.952 3.323 9.623 5.923 1.323 1.288 2.571 2.503 3.975 3.472 2.243 1.546 4.879 2.121 7.234 1.575 1.948-.452 3.252-1.65 4.76-3.037.733-.673 1.49-1.368 2.365-2.017 2.92-2.163 6.199-2.206 9.369-2.248 1.841-.023 3.58-.046 5.194-.476 3.755-1 7.535-4.502 7.146-9.023a1.48 1.48 0 011.327-1.612 1.474 1.474 0 011.582 1.352c.431 5.02-3.009 9.892-8.143 11.784zM3.922 21.481C3.922 13.195 18.495 0 35.767 0s31.847 13.195 31.847 21.481c0 2.653-1.464 5.212-4.235 7.404-.265.21-.58.312-.893.312a1.45 1.45 0 01-1.154-.575 1.506 1.506 0 01.257-2.087c1.416-1.12 3.105-2.906 3.105-5.054 0-6.173-12.506-18.507-28.927-18.507-16.42 0-28.926 12.334-28.926 18.507 0 2.146 1.687 3.933 3.103 5.053.637.504.752 1.438.257 2.087a1.447 1.447 0 01-2.049.262c-2.767-2.191-4.23-4.75-4.23-7.402z" id="Fill-1" fill="#CF102D"></path></g></g></g></g></svg>