<svg width="143" height="143" viewBox="0 0 143 143" version="1.1" xmlns="http://www.w3.org/2000/svg" xmlns:xlink="http://www.w3.org/1999/xlink"><defs><path id="path-1" d="M0 .692h70.34v80.785H0z"></path></defs><g id="Page-1" stroke="none" stroke-width="1" fill="none" fill-rule="evenodd"><g id="Homepage_2" transform="translate(-809 -1114)"><g id="Group-8" transform="translate(812 1117)"><circle id="Oval-Copy-7" stroke="#006938" stroke-width="6" fill="#FFF" cx="68.5" cy="68.5" r="68.5"></circle><g id="Group-6" transform="translate(38 25)"><g id="Group-3" transform="translate(0 .07)"><mask id="mask-2" fill="#fff"><use xlink:href="#path-1"></use></mask><path d="M65.32 33.989c-1.895-2.531-4.889-3.87-8.656-3.87-.398 0-.765.017-1.09.042a1.462 1.462 0 01-1.18-.46 1.49 1.49 0 01-.39-1.215 92.21 92.21 0 01.791-4.977c-5.41 2.745-15.418 4.161-25.349 4.161-9.94 0-19.958-1.42-25.365-4.169 1.552 8.214 3.284 24.894.406 47.143.076.57 1.494 7.87 24.962 7.87 23.243 0 24.857-7.162 24.959-7.89-.385-2.97-.698-5.898-.931-8.703-.05-.595.259-1.16.783-1.437l1.92-1.013c3.51-1.866 9.793-7.419 11.054-16.378.639-4.568-.688-7.472-1.914-9.104m4.825 9.519c-1.427 10.143-8.59 16.456-12.598 18.587l-1.056.558c.223 2.505.508 5.1.85 7.728.008.053.012.107.013.16.005.227-.012 2.29-2.206 4.552-2.823 2.913-9.573 6.384-25.7 6.384-16.125 0-22.875-3.47-25.699-6.384-2.193-2.262-2.21-4.325-2.206-4.552.001-.053.005-.106.013-.159 3.509-26.99.172-45.417-1.251-50.26a3.584 3.584 0 01-.263-.867 1.508 1.508 0 01-.035-.433c0-.033-.007-.064-.007-.097 0-5.856 13.538-7.862 19.358-8.453.812-.09 1.53.512 1.61 1.326a1.48 1.48 0 01-1.314 1.624c-5.122.52-9.48 1.42-12.601 2.606-3.197 1.215-4.084 2.365-4.11 2.873.048.149.1.315.154.501 1.268 2.114 10.46 5.504 26.35 5.504 15.885 0 25.076-3.388 26.348-5.501.054-.18.106-.349.156-.5-.05-1.436-5.368-4.526-18.096-5.613a1.48 1.48 0 01-1.342-1.602 1.472 1.472 0 011.59-1.351c4.877.416 20.79 2.266 20.79 8.586 0 .027-.006.053-.006.082a1.478 1.478 0 01-.08.643 3.609 3.609 0 01-.204.639c-.405 1.363-.945 3.76-1.442 7.073 4.495.118 8.12 1.855 10.505 5.039 1.56 2.08 3.259 5.73 2.48 11.307m-9.986-4.57c-.696-.892-1.951-1.19-2.88-1.28a9.55 9.55 0 00-1.18-.036c-.297 4.307-.38 8.81-.25 13.434l.136-.12c1.836-1.634 4.144-4.45 4.732-8.6.212-1.51.024-2.652-.558-3.399m2.311-1.832c1.097 1.405 1.487 3.306 1.16 5.646l-.001.002c-.715 5.044-3.491 8.442-5.695 10.403a16.934 16.934 0 01-2.682 1.975 1.5 1.5 0 01-.76.207 1.485 1.485 0 01-1.477-1.402c-.285-6.166-.203-12.154.245-17.8.06-.754.674-1.34 1.42-1.362a12.568 12.568 0 012.881-.067c2.155.213 3.851 1.042 4.91 2.398M37.474 21.691a1.474 1.474 0 001.673 1.244c5.322-.808 7.8-2.156 7.8-4.237 0-1.96-2.196-3.26-6.912-4.092a1.466 1.466 0 00-1.702 1.204 1.48 1.48 0 001.195 1.716c2.219.392 3.463.851 4.082 1.173-.694.362-2.17.89-4.901 1.305a1.48 1.48 0 00-1.235 1.687m-17.73-7.231c-5.321.809-7.8 2.156-7.8 4.238 0 1.845 2.218 4.163 12.782 4.731a1.475 1.475 0 001.546-1.401 1.477 1.477 0 00-1.39-1.558c-5.403-.292-8.46-1.18-9.606-1.77.692-.363 2.17-.893 4.907-1.31a1.48 1.48 0 001.235-1.686 1.472 1.472 0 00-1.673-1.244m10.133-2.901c-1.464 2.449-.773 5.222 1.846 7.421a1.462 1.462 0 002.071-.191 1.49 1.49 0 00-.19-2.087c-2.243-1.883-1.465-3.186-1.208-3.614.257-.432.577-.88.914-1.356 1.48-2.083 3.716-5.23.476-8.603a1.463 1.463 0 00-2.08-.035 1.492 1.492 0 00-.033 2.097c1.408 1.464.94 2.43-.753 4.814a23.544 23.544 0 00-1.043 1.554m-6.367 2.907c-.264-1.96.293-3.844 1.615-5.447.263-.32.54-.621.818-.923.414-.45.805-.874 1.109-1.332 1.172-1.767-.016-2.977-.58-3.416a1.49 1.49 0 01-.268-2.079A1.463 1.463 0 0128.267 1c2.427 1.884 2.922 4.863 1.23 7.413-.433.655-.924 1.187-1.398 1.702-.24.26-.483.522-.71.798-.792.961-1.116 2.023-.963 3.154.177 1.307 1.015 2.6 2.242 3.458a1.49 1.49 0 01.368 2.063 1.466 1.466 0 01-2.046.372c-1.92-1.343-3.187-3.345-3.478-5.493" id="Fill-1" fill="#CF102D"></path></g><path d="M15.866 54.238h27.16l.183-.813c1.102-4.703 1.44-6.174 1.94-8.35l-15.537 1.783a1.42 1.42 0 01-.331 0l-15.537-1.78c.501 2.175.839 3.647 1.937 8.333l.185.827zm27.211 2.965h-27.26c-1.804 0-2.484-1.065-2.737-1.958a1.627 1.627 0 01-.022-.081l-.243-1.087c-1.105-4.717-1.44-6.176-1.947-8.385l-.302-1.31c-.143-.627-.017-1.231.358-1.702.363-.462.907-.719 1.527-.719.099 0 .207.006.336.023l16.659 1.91 16.685-1.913c.795-.113 1.417.164 1.843.704.37.47.496 1.073.352 1.697l-.301 1.31c-.508 2.21-.843 3.668-1.95 8.4l-.24 1.072a.974.974 0 01-.022.081c-.253.893-.933 1.958-2.736 1.958z" id="Fill-4" fill="#006938"></path></g></g></g></g></svg>