<svg version="1.1" id="Layer_1" xmlns="http://www.w3.org/2000/svg" width="143" height="143" viewBox="0 0 143 143"><g id="Page-1"><g id="Homepage_2" transform="translate(-809 -1114)"><g id="Group-8" transform="translate(812 1117)"><circle id="Oval-Copy-7" cx="68.5" cy="68.5" r="68.5" fill-rule="evenodd" clip-rule="evenodd" fill="#fff" stroke="#006938" stroke-width="6"></circle></g></g></g><path d="M103.4 38.5c-1-.5-2.1-1-3.3-1.4v-7.2c-.7-3-4-5.2-9.8-6.7-5-1.3-11.5-2-18.9-2-16.1 0-25.7 4.1-28.2 8.2-.2.3-.3.6-.3.9v6.9c-1.2.4-2.3.9-3.3 1.4-.6.3-1 .9-1 1.6v11.4c0 .6.3 1.2.8 1.5.3.2.6.3 1 .3.3 0 .5 0 .8-.2.5-.3 1.1-.5 1.7-.8l3 63.6c0 .7.4 1.3 1 1.5 5.7 2.7 14.8 4.4 24.6 4.4s19-1.6 24.6-4.4c.6-.3 1-.9 1-1.5l3.4-63.5c.5.2.9.4 1.3.6.5.3 1.2.3 1.7-.1s.8-.9.8-1.5V40.1c.2-.7-.3-1.3-.9-1.6zm-56.9-7.7c.8-.9 2.7-2.6 8-4.1 4.7-1.3 10.7-2 16.8-2 7 0 13.4.7 18 1.9 5.7 1.5 6.9 3.2 7.1 3.9v5.4c-6.9-2-15.8-3.1-25-3.1s-18.1 1.1-25 3.1v-5.1zm47.1 83.9c-5.2 2.2-13.4 3.6-22.1 3.6-8.7 0-16.8-1.3-22.1-3.6l-3-63.6c6.7-2.1 15.6-3.3 25.1-3.3 9.6 0 18.7 1.2 25.5 3.4l-3.4 63.5zm7.2-65.9c-7.4-2.9-18.1-4.5-29.3-4.5S49.6 46 42.2 48.8v-7.5c6.9-3 17.8-4.8 29.3-4.8s22.4 1.8 29.3 4.8v7.5z" fill="#cf102d"></path><path d="M89.2 79.4l.3-1.2c1.2-5.1 1.6-6.7 2.1-9l.3-1.4c.2-.6 0-1.3-.4-1.9-.5-.6-1.1-.8-2-.7l-18.1 2.1-18-2H53c-.6 0-1.3.3-1.7.8-.4.5-.5 1.1-.4 1.9l.3 1.4c.5 2.4.9 3.9 2.1 9l.3 1.2v.1c.3.9 1 2.1 3 2.1h29.5c2.1-.2 2.9-1.4 3.1-2.4zm-32.6-1.9c-1.2-5-1.6-6.6-2.1-9l16.8 1.9h.4l16.8-1.9c-.5 2.3-.9 3.9-2.1 9l-.2.8H56.8l-.2-.8z" fill="#006938"></path></svg>