<svg width="143" height="143" viewBox="0 0 143 143" version="1.1" xmlns="http://www.w3.org/2000/svg" xmlns:xlink="http://www.w3.org/1999/xlink"><defs><path id="path-1" d="M0 0h76.987v52.443H0z"></path></defs><g id="Page-1" stroke="none" stroke-width="1" fill="none" fill-rule="evenodd"><g id="Homepage_2" transform="translate(-173 -1114)"><g id="Group-4" transform="translate(176 1117)"><circle id="Oval" stroke="#006938" stroke-width="6" fill="#FFF" cx="68.5" cy="68.5" r="68.5"></circle><g id="Group-3" transform="translate(30 45)"><mask id="mask-2" fill="#fff"><use xlink:href="#path-1"></use></mask><path d="M73.567 40.8a12.852 12.852 0 002.222-3.123 1.468 1.468 0 00-.658-1.978 1.488 1.488 0 00-1.993.653 9.912 9.912 0 01-1.714 2.409C62.077 48.45 46.29 49.496 39.939 49.496c-2.434 0-24.053-.343-33.932-12.198-.41-.494-.764-.97-1.05-1.416a1.492 1.492 0 00-2.05-.451 1.468 1.468 0 00-.453 2.035c.351.548.777 1.123 1.266 1.71 1.847 2.216 12.268 13.267 36.219 13.267 19.486 0 29.433-7.295 33.628-11.642M28.4 14.677c2.619-1.262 7-2.016 11.715-2.016 4.717 0 9.096.754 11.714 2.016.737.356 1.626.05 1.983-.682a1.469 1.469 0 00-.687-1.97c-3.048-1.468-7.789-2.311-13.01-2.311-5.22 0-9.962.843-13.01 2.311a1.47 1.47 0 00-.688 1.97 1.485 1.485 0 001.983.682m31.303 1.321a1.468 1.468 0 00-.496-2.025 1.49 1.49 0 00-2.04.493c-1.286 2.098-8.008 4.27-17.03 4.27-11.006 0-16.668-2.296-17.029-3.847a1.484 1.484 0 00-1.78-1.105 1.474 1.474 0 00-1.111 1.767c1.322 5.69 15.582 6.133 19.92 6.133 8.005 0 17.159-1.758 19.566-5.686M42.208 45.565c2.977-.673 4.888-2.383 6.735-4.038.76-.682 1.547-1.387 2.397-2 2.47-1.784 5.497-1.823 8.703-1.864 2.16-.027 4.394-.055 6.572-.62 5.444-1.414 10.915-6.495 10.33-13.128a1.487 1.487 0 00-1.61-1.34 1.477 1.477 0 00-1.348 1.597c.444 5.023-3.854 8.911-8.123 10.02-1.828.473-3.785.498-5.858.524-3.53.045-7.179.091-10.412 2.428-.976.704-1.821 1.462-2.639 2.194-1.707 1.53-3.182 2.851-5.405 3.352-2.679.606-5.677-.03-8.226-1.743-1.585-1.066-2.99-2.398-4.476-3.809-2.978-2.825-6.057-5.746-10.702-6.432-1.848-.272-3.565-.048-5.224.168-1.432.187-2.782.364-4.127.21-2.367-.272-4.045-1.2-4.984-2.755-1.142-1.89-1.131-4.653.029-7.58a1.472 1.472 0 00-.838-1.912 1.488 1.488 0 00-1.924.833c-1.5 3.784-1.432 7.494.188 10.176.989 1.636 3.038 3.688 7.187 4.165 1.709.196 3.308-.012 4.856-.214 1.524-.2 2.965-.39 4.4-.175 3.714.548 6.325 3.025 9.09 5.648 1.51 1.432 3.07 2.914 4.862 4.118 2.409 1.62 5.165 2.473 7.855 2.473.91 0 1.813-.097 2.692-.296M69.885 24.03c-.443 0-.88-.196-1.173-.57a1.468 1.468 0 01.262-2.068c1.614-1.245 3.54-3.235 3.54-5.642 0-6.183-13.09-12.803-32.575-12.803-19.486 0-32.576 6.62-32.576 12.803 0 2.407 1.924 4.396 3.538 5.64.647.5.764 1.425.262 2.069a1.492 1.492 0 01-2.083.259c-3.064-2.365-4.684-5.12-4.684-7.968C4.396 6.918 20.008 0 39.939 0 59.869 0 75.48 6.918 75.48 15.75c0 2.849-1.62 5.605-4.687 7.97-.27.21-.59.31-.91.31" id="Fill-1" fill="#CF102D"></path></g></g></g></g></svg>