<svg width="143" height="143" viewBox="0 0 143 143" version="1.1" xmlns="http://www.w3.org/2000/svg" xmlns:xlink="http://www.w3.org/1999/xlink"><defs><path id="path-1" d="M.196.578h38.422v70.425H.196z"></path></defs><g id="Page-1" stroke="none" stroke-width="1" fill="none" fill-rule="evenodd"><g id="Homepage_2" transform="translate(-1127 -1114)"><g id="Group-9" transform="translate(1130 1117)"><circle id="Oval-Copy-8" stroke="#006938" stroke-width="6" fill="#FFF" cx="68.5" cy="68.5" r="68.5"></circle><g id="Group-6" transform="translate(39 16)"><g id="Group-3" transform="translate(9.961 .172)"><mask id="mask-2" fill="#fff"><use xlink:href="#path-1"></use></mask><path d="M5.443 67.268c-1.115-4.615-1.458-6.065-1.965-8.208l15.76 1.755c.112.012.224.012.337 0l15.76-1.758c-.507 2.145-.85 3.594-1.967 8.226l-.186.8H5.63l-.187-.815zm30.568 1.809c.008-.027.015-.055.021-.082l.243-1.055c1.124-4.66 1.464-6.098 1.978-8.273l.305-1.291c.147-.614.02-1.208-.357-1.672-.431-.532-1.059-.804-1.868-.692l-16.927 1.883-16.9-1.882a2.71 2.71 0 00-.34-.022c-.629 0-1.18.253-1.553.713-.377.464-.503 1.058-.359 1.67l.305 1.292c.515 2.176.855 3.613 1.976 8.259l.246 1.07c.007.027.013.053.022.08.257.88.947 1.928 2.776 1.928h27.656c1.827 0 2.518-1.047 2.776-1.926zm-8.764-48.301c-.181 0-.364-.032-.54-.1a1.45 1.45 0 01-.851-1.89L32.713 1.51a1.504 1.504 0 011.93-.832 1.45 1.45 0 01.85 1.89l-6.857 17.277c-.23.578-.793.932-1.39.932z" id="Fill-1" fill="#006938"></path></g><path d="M25.471 25.329l2.544-4.093a1.063 1.063 0 011.442-.343c.494.295.652.926.35 1.411l-2.543 4.093a1.062 1.062 0 01-1.442.343 1.014 1.014 0 01-.35-1.411zm-9.381.514c.22-.524.832-.775 1.368-.56l4.53 1.818c.535.216.792.815.572 1.34-.22.525-.833.775-1.369.56l-4.528-1.818a1.02 1.02 0 01-.573-1.34zm6.778 5.713l4.615-1.597a1.055 1.055 0 011.338.625 1.021 1.021 0 01-.639 1.31l-4.614 1.598a1.055 1.055 0 01-1.339-.625 1.02 1.02 0 01.64-1.31zm11.93-4.348a1.02 1.02 0 01.638-1.31l4.615-1.599a1.055 1.055 0 011.339.626 1.022 1.022 0 01-.64 1.31l-4.613 1.598a1.055 1.055 0 01-1.34-.625zm-1.825 2.499a1.06 1.06 0 011.407-.459l4.377 2.145c.518.255.727.87.468 1.378a1.06 1.06 0 01-1.407.459l-4.377-2.145a1.017 1.017 0 01-.468-1.378zm17.243 14.646c-4.505 1.844-12.459 2.99-20.759 2.99-8.355 0-16.344-1.146-20.85-2.99a1.245 1.245 0 01-.688-1.641 1.293 1.293 0 011.677-.675c4.213 1.725 11.823 2.797 19.861 2.797 7.983 0 15.558-1.072 19.77-2.797a1.292 1.292 0 011.677.675 1.245 1.245 0 01-.688 1.641zm.288 43.619a1.536 1.536 0 00-.006.132c0 1.06-6.357 4.399-21.13 4.399s-21.13-3.338-21.13-4.399c0-.043-.002-.088-.006-.132L3.385 35.641c5.195 2.905 15.63 4.407 25.983 4.407 10.351 0 20.787-1.502 25.983-4.407l-4.847 52.331zM6.027 30.666c1.85-.369 3.946-.788 5.094-2.39 1.131-1.58.892-3.213.717-4.406-.195-1.33-.153-1.58.318-1.914 1.5-1.06 2.475-.896 3.944-.65 1.478.249 3.316.56 5.724-.485 2.34-1.015 3.387-2.687 4.228-4.03.985-1.574 1.45-2.213 3.116-2.213 1.759 0 2.23.742 3.169 2.221.852 1.343 1.912 3.014 4.272 4.026 2.428 1.042 4.272.73 5.753.482 1.482-.252 2.461-.416 3.993.65.493.343.542.598.37 1.945-.152 1.197-.36 2.836.802 4.41 1.175 1.588 3.278 1.997 5.133 2.358 1.236.239 2.502.488 3.02 1-.865 2.018-10.077 5.458-26.312 5.458-16.255 0-25.468-3.447-26.314-5.465.5-.501 1.752-.753 2.973-.997zm52.705.75c0-.044-.002-.088-.005-.133a1.614 1.614 0 00-.013-.136c-.004-.022-.003-.044-.008-.066-.006-.028-.017-.053-.025-.08a1.294 1.294 0 00-.1-.27 1.65 1.65 0 00-.067-.119c-.015-.023-.027-.049-.043-.071-.993-1.891-3.23-2.346-5.23-2.735-1.38-.269-2.809-.547-3.297-1.207-.452-.611-.396-1.254-.258-2.337.165-1.305.417-3.28-1.602-4.685-2.544-1.769-4.501-1.439-6.228-1.148-1.31.221-2.442.413-4.05-.278-1.512-.649-2.171-1.689-2.935-2.892-1.019-1.604-2.286-3.601-5.703-3.601-3.402 0-4.654 2-5.66 3.608-.751 1.201-1.401 2.239-2.892 2.885-1.583.687-2.707.498-4.01.277-1.64-.275-3.68-.619-6.197 1.162-2.003 1.418-1.715 3.39-1.524 4.694.158 1.074.226 1.712-.206 2.316-.466.65-1.944.945-3.249 1.205-1.983.396-4.202.86-5.172 2.742-.013.02-.024.044-.036.065a1.65 1.65 0 00-.067.12c-.014.027-.03.053-.042.081l-.004.007c-.006.017-.008.034-.015.05a1.37 1.37 0 00-.04.13c-.009.03-.019.058-.025.089-.004.022-.006.044-.009.068a1.07 1.07 0 00-.011.131c-.002.027-.009.054-.009.08v.009c0 .025.006.048.007.073 0 .017-.002.033 0 .05l5.249 56.68c.138 5.727 15.808 7.242 24.112 7.242 8.303 0 23.974-1.515 24.112-7.242l5.25-56.68c.001-.017-.002-.034 0-.051 0-.011.003-.022.003-.034z" id="Fill-4" fill="#CF102D"></path></g></g></g></g></svg>