<svg width="247" height="87" viewBox="0 0 247 87" version="1.1" xmlns="http://www.w3.org/2000/svg"><g id="Page-1" stroke="none" stroke-width="1" fill="none" fill-rule="evenodd"><g id="Homepage_2" transform="translate(-60 -45)"><g id="KKLOGO-Canada-2018" transform="translate(62 47)"><path d="M25.134 76.125c-5.515 0-8.832-2.434-9.994-7.453C9.4 43.886 2.713 14.318.287 3.729-.162 1.77 1.457-.041 3.47.186L121.155 13.47 239.282.189c2.014-.227 3.646 1.589 3.183 3.543-2.486 10.51-9.544 40.193-15.368 64.94-1.18 5.015-4.435 7.453-9.951 7.453H25.134" id="Fill-1" fill="#006938"/><path d="M25.134 76.125c-5.515 0-8.832-2.434-9.994-7.453C9.4 43.886 2.713 14.318.287 3.729-.162 1.77 1.457-.041 3.47.186L121.155 13.47 239.282.189c2.014-.227 3.646 1.589 3.183 3.543-2.486 10.51-9.544 40.193-15.368 64.94-1.18 5.015-4.435 7.453-9.951 7.453H25.134z" id="Stroke-2" stroke="#FFFFFE" stroke-width="3.772"/><path d="M216.895 71.968c3.62.033 5.266-.955 6.039-4.24 7.327-31.133 14.957-63.209 14.957-63.209L121.16 17.652 4.704 4.517s7.116 32.078 14.443 63.211c.773 3.285 2.462 4.284 6.082 4.25l191.666-.01" id="Fill-4" fill="#FFFFFE"/><path d="M216.895 71.968c3.62.033 5.266-.955 6.039-4.24 7.327-31.133 14.957-63.209 14.957-63.209L121.16 17.652 4.704 4.517s7.116 32.078 14.443 63.211c.773 3.285 2.462 4.284 6.082 4.25l191.666-.01z" id="Stroke-5" stroke="#FFFFFE" stroke-width="3.772"/><path d="M194.523 76.192c0 3.643-3.073 6.597-6.864 6.597H54.613c-3.79 0-6.864-2.954-6.864-6.597v-3.298c0-3.643 3.073-6.596 6.864-6.596H187.66c3.79 0 6.864 2.953 6.864 6.596v3.298" id="Fill-7" fill="#006938"/><path d="M194.523 76.192c0 3.643-3.073 6.597-6.864 6.597H54.613c-3.79 0-6.864-2.954-6.864-6.597v-3.298c0-3.643 3.073-6.596 6.864-6.596H187.66c3.79 0 6.864 2.953 6.864 6.596v3.298z" id="Stroke-8" stroke="#FFFFFE" stroke-width="3.772"/><path d="M62.593 77.067c1.424 0 2.458-1.11 2.458-2.535 0-1.41-1.034-2.522-2.458-2.522h-1.21v5.057h1.21zm-3.176-6.656c0-.124.101-.237.227-.237h3.075c2.432 0 4.423 1.96 4.423 4.358 0 2.423-1.99 4.383-4.423 4.383h-3.075c-.126 0-.227-.112-.227-.237V70.41z" id="Fill-10" fill="#FFFFFE"/><path d="M62.593 77.067c1.424 0 2.458-1.11 2.458-2.535 0-1.41-1.034-2.522-2.458-2.522h-1.21v5.057h1.21zm-3.176-6.656c0-.124.101-.237.227-.237h3.075c2.432 0 4.423 1.96 4.423 4.358 0 2.423-1.99 4.383-4.423 4.383h-3.075c-.126 0-.227-.112-.227-.237V70.41z" id="Stroke-11" stroke="#FFFFFE" stroke-width="3.772" stroke-linecap="round" stroke-linejoin="round"/><path d="M78.38 77.042c1.387 0 2.521-1.124 2.521-2.485a2.527 2.527 0 00-2.52-2.51 2.525 2.525 0 00-2.508 2.51c0 1.361 1.134 2.485 2.507 2.485m0-6.993c2.521 0 4.537 2.01 4.537 4.508s-2.016 4.483-4.537 4.483c-2.52 0-4.524-1.985-4.524-4.483a4.497 4.497 0 014.524-4.508" id="Fill-13" fill="#FFFFFE"/><path d="M78.38 77.042c1.387 0 2.521-1.124 2.521-2.485a2.527 2.527 0 00-2.52-2.51 2.525 2.525 0 00-2.508 2.51c0 1.361 1.134 2.485 2.507 2.485zm0-6.993c2.521 0 4.537 2.01 4.537 4.508s-2.016 4.483-4.537 4.483c-2.52 0-4.524-1.985-4.524-4.483a4.497 4.497 0 014.524-4.508z" id="Stroke-14" stroke="#FFFFFE" stroke-width="3.772" stroke-linecap="round" stroke-linejoin="round"/><path d="M90.085 70.411c0-.124.113-.236.24-.236h1.55c.138 0 .239.112.239.236v5.058c0 .874.655 1.574 1.55 1.574.907 0 1.575-.7 1.575-1.574v-5.058c0-.124.101-.236.24-.236h1.55c.126 0 .24.112.24.236v5.157c0 1.899-1.614 3.473-3.605 3.473-1.979 0-3.58-1.574-3.58-3.473v-5.157" id="Fill-16" fill="#FFFFFE"/><path d="M90.085 70.411c0-.124.113-.236.24-.236h1.55c.138 0 .239.112.239.236v5.058c0 .874.655 1.574 1.55 1.574.907 0 1.575-.7 1.575-1.574v-5.058c0-.124.101-.236.24-.236h1.55c.126 0 .24.112.24.236v5.157c0 1.899-1.614 3.473-3.605 3.473-1.979 0-3.58-1.574-3.58-3.473v-5.157z" id="Stroke-17" stroke="#FFFFFE" stroke-width="3.772" stroke-linecap="round" stroke-linejoin="round"/><path d="M108.952 70.062c1.06 0 2.218.437 3.075 1.174.114.087.126.237.026.337l-.996 1.049a.27.27 0 01-.34.012c-.479-.437-1.033-.599-1.65-.599-1.375 0-2.484 1.149-2.484 2.522a2.5 2.5 0 002.495 2.485 3 3 0 001.122-.2v-.724h-.794c-.138 0-.24-.1-.24-.225v-1.235c0-.138.102-.238.24-.238h2.534c.126 0 .226.112.226.238l.013 3.358c0 .062-.05.163-.101.2 0 0-1.298.812-3.126.812-2.507 0-4.524-1.973-4.524-4.471 0-2.497 2.017-4.495 4.524-4.495" id="Fill-19" fill="#FFFFFE"/><path d="M108.952 70.062c1.06 0 2.218.437 3.075 1.174.114.087.126.237.026.337l-.996 1.049a.27.27 0 01-.34.012c-.479-.437-1.033-.599-1.65-.599-1.375 0-2.484 1.149-2.484 2.522a2.5 2.5 0 002.495 2.485 3 3 0 001.122-.2v-.724h-.794c-.138 0-.24-.1-.24-.225v-1.235c0-.138.102-.238.24-.238h2.534c.126 0 .226.112.226.238l.013 3.358c0 .062-.05.163-.101.2 0 0-1.298.812-3.126.812-2.507 0-4.524-1.973-4.524-4.471 0-2.497 2.017-4.495 4.524-4.495z" id="Stroke-20" stroke="#FFFFFE" stroke-width="3.772" stroke-linecap="round" stroke-linejoin="round"/><path d="M119.749 70.411c0-.124.113-.236.239-.236h1.5c.138 0 .24.112.24.236v3.148h3.603V70.41c0-.124.1-.236.24-.236h1.5c.125 0 .239.112.239.236v8.267a.246.246 0 01-.239.237h-1.5a.238.238 0 01-.24-.237v-3.284h-3.604v3.284a.238.238 0 01-.24.237h-1.5a.246.246 0 01-.238-.237V70.41" id="Fill-22" fill="#FFFFFE"/><path d="M119.749 70.411c0-.124.113-.236.239-.236h1.5c.138 0 .24.112.24.236v3.148h3.603V70.41c0-.124.1-.236.24-.236h1.5c.125 0 .239.112.239.236v8.267a.246.246 0 01-.239.237h-1.5a.238.238 0 01-.24-.237v-3.284h-3.604v3.284a.238.238 0 01-.24.237h-1.5a.246.246 0 01-.238-.237V70.41z" id="Stroke-23" stroke="#FFFFFE" stroke-width="3.772" stroke-linecap="round" stroke-linejoin="round"/><path d="M135.177 70.274c0-.125.112-.225.24-.225h.314l5.029 4.795h.012v-4.433c0-.124.101-.236.24-.236h1.512c.126 0 .24.112.24.236v8.404c0 .125-.114.226-.24.226h-.202a.368.368 0 01-.163-.063l-4.979-4.958h-.012v4.658c0 .125-.1.237-.24.237h-1.5a.247.247 0 01-.239-.237l-.012-8.404" id="Fill-25" fill="#FFFFFE"/><path d="M135.177 70.274c0-.125.112-.225.24-.225h.314l5.029 4.795h.012v-4.433c0-.124.101-.236.24-.236h1.512c.126 0 .24.112.24.236v8.404c0 .125-.114.226-.24.226h-.202a.368.368 0 01-.163-.063l-4.979-4.958h-.012v4.658c0 .125-.1.237-.24.237h-1.5a.247.247 0 01-.239-.237l-.012-8.404z" id="Stroke-26" stroke="#FFFFFE" stroke-width="3.772" stroke-linecap="round" stroke-linejoin="round"/><path d="M150.547 70.411c0-.124.114-.236.24-.236h1.55c.139 0 .239.112.239.236v5.058c0 .874.656 1.574 1.55 1.574.907 0 1.575-.7 1.575-1.574v-5.058c0-.124.101-.236.24-.236h1.551c.125 0 .239.112.239.236v5.157c0 1.899-1.613 3.473-3.605 3.473-1.978 0-3.58-1.574-3.58-3.473v-5.157" id="Fill-28" fill="#FFFFFE"/><path d="M150.547 70.411c0-.124.114-.236.24-.236h1.55c.139 0 .239.112.239.236v5.058c0 .874.656 1.574 1.55 1.574.907 0 1.575-.7 1.575-1.574v-5.058c0-.124.101-.236.24-.236h1.551c.125 0 .239.112.239.236v5.157c0 1.899-1.613 3.473-3.605 3.473-1.978 0-3.58-1.574-3.58-3.473v-5.157z" id="Stroke-29" stroke="#FFFFFE" stroke-width="3.772" stroke-linecap="round" stroke-linejoin="round"/><path d="M166.594 72.01h-1.802a.239.239 0 01-.239-.237V70.41c0-.124.1-.237.24-.237h5.595c.139 0 .24.113.24.237v1.362a.239.239 0 01-.24.237h-1.803v6.668a.247.247 0 01-.24.237h-1.51a.246.246 0 01-.24-.237V72.01" id="Fill-31" fill="#FFFFFE"/><path d="M166.594 72.01h-1.802a.239.239 0 01-.239-.237V70.41c0-.124.1-.237.24-.237h5.595c.139 0 .24.113.24.237v1.362a.239.239 0 01-.24.237h-1.803v6.668a.247.247 0 01-.24.237h-1.51a.246.246 0 01-.24-.237V72.01z" id="Stroke-32" stroke="#FFFFFE" stroke-width="3.772" stroke-linecap="round" stroke-linejoin="round"/><path d="M177.276 77.73l.592-1.037c.1-.163.34-.138.428-.075.051.024.958.687 1.79.687.504 0 .87-.313.87-.75 0-.525-.442-.924-1.298-1.261-1.084-.425-2.445-1.262-2.445-2.76 0-1.236.97-2.485 2.911-2.485 1.31 0 2.319.662 2.697.937.151.087.126.312.076.4l-.644.961c-.088.138-.314.25-.427.162-.114-.062-1.035-.75-1.803-.75-.454 0-.794.3-.794.638 0 .462.378.812 1.373 1.211.983.387 2.546 1.15 2.546 2.847 0 1.286-1.121 2.585-2.974 2.585-1.638 0-2.545-.674-2.836-.961-.125-.125-.164-.175-.062-.35" id="Fill-34" fill="#FFFFFE"/><path d="M177.276 77.73l.592-1.037c.1-.163.34-.138.428-.075.051.024.958.687 1.79.687.504 0 .87-.313.87-.75 0-.525-.442-.924-1.298-1.261-1.084-.425-2.445-1.262-2.445-2.76 0-1.236.97-2.485 2.911-2.485 1.31 0 2.319.662 2.697.937.151.087.126.312.076.4l-.644.961c-.088.138-.314.25-.427.162-.114-.062-1.035-.75-1.803-.75-.454 0-.794.3-.794.638 0 .462.378.812 1.373 1.211.983.387 2.546 1.15 2.546 2.847 0 1.286-1.121 2.585-2.974 2.585-1.638 0-2.545-.674-2.836-.961-.125-.125-.164-.175-.062-.35z" id="Stroke-35" stroke="#FFFFFE" stroke-width="3.772" stroke-linecap="round" stroke-linejoin="round"/><path d="M174.888 37.9c.993 0 1.02 1.36.958 2.222-.165 2.317-1.544 5.034-5.01 5.42.437-3.876 2.166-7.643 4.052-7.643m41.652 0c.715 0 .91.914.921 1.537.064 3.414-2.105 5.917-5.019 6.102.438-3.875 2.074-7.639 4.098-7.639m-58.17-9.556l62.454.002c3.414 0 6.128-2.818 6.063-6.298 0 0-.012-.276-.03-.413-.056-.47-.712-.84-.975-.457-.74 1.084-3.279 1.083-4.905 1.083l-62.688-.011c-10.462 0-19.336 12.443-21.386 15.054 1.002-2.874 3-8.91 2.956-11.246-.1-5.377-6.341-5.653-9.467-4.46-.342.132-.213.69.149.76 1.043.203 3.041.975 2.307 3.91-.063.448-8.315 30.576-8.315 30.576a.497.497 0 00.47.63h5.842a.466.466 0 00.449-.342c.573-2.033 2.914-10.222 2.942-10.298 1.51-4.155 3.705-6.887 5.551-6.887.863 0 1.294.506 1.305 1.096.025 1.363-1.899 7.322-2.698 10.42-1.015 3.936 1.341 6.704 5.123 6.704 3.95 0 5.683-2.032 7.773-5.982.873-1.651 4.299-11.484 4.93-13.546.653.147 1.7.277 2.538.34-.025.091-1.063 4.166-1.44 5.697-.395 1.615-.83 3.193-.858 4.904-.042 2.45.806 5.135 3.744 5.135 3.191 0 5.204-2.102 6.36-3.57.69 1.54 2.55 3.569 5.593 3.569 3.045 0 5.568-1.151 7.41-3.507l-.759 2.725a.456.456 0 00.433.577h4.264a.432.432 0 00.416-.321l3.18-11.665c.615-1.63 2.597-3.024 3.695-3.024.528 0 .834.326.648 1.12l-3.496 13.316a.457.457 0 00.434.574h4.269a.433.433 0 00.416-.321l3.062-11.665c.706-1.569 2.612-3.028 3.704-3.028.501 0 .788.358.61 1.125a2295.4 2295.4 0 01-1.38 5.228c-1.82 6.832-.122 8.854 3.424 8.854 2.501 0 4.534-1.362 5.816-3.149 1.052 2.495 3.426 3.17 5.547 3.17 4.481 0 6.767-2.993 7.765-4.499.157-.236.108-.583-.075-.727a6.581 6.581 0 00-.64-.444c-.214-.134-.51-.1-.633.051-1.091 1.358-2.43 2.52-4.889 2.52-2.16 0-2.97-2.226-2.998-3.75-.005-.24.005-.39.029-.582 6.126 0 8.932-3.966 8.877-6.905-.044-2.35-1.228-4.739-4.677-4.739-5.932 0-9.31 6.515-9.214 11.597.005.304.091 1.767.228 2.46-.557.74-1.708 1.64-2.725 1.64-.996 0-1.239-1.093-1.112-2.356.357-3.511 1.97-7.53 1.92-10.21-.022-1.136-.583-3.117-3.275-3.117-2.207 0-4.53 1.353-5.953 3.139-.122-1.156-.266-3.139-3.044-3.139-1.38 0-3.62.72-5.435 2.758l.542-1.968a.457.457 0 00-.434-.578h-4.033a.432.432 0 00-.416.32s-2.364 8.6-2.434 8.848c-2.58 6.079-5.43 6.592-7.573 6.592-1.982 0-3.019-2.368-2.856-4.34 5.096 0 8.929-3.006 8.854-6.988-.047-2.548-1.423-4.654-4.803-4.654-6.486 0-9.116 7.808-9.043 11.72.012.638.072 1.284.146 1.773-.212.407-1.295 1.65-2.592 1.65-1.942 0-1.91-4.513 1.172-13.803l.135-.338a.424.424 0 00-.394-.583c-1.35.021-5.142.405-7.261-.404.006-.036.699-3.342-2.71-3.342-1.65 0-2.859 1.079-2.833 2.496.04 2.078 1.575 2.895 2.478 3.295-1.445 4.367-2.96 8.642-4.396 11.87-1.364 3.068-2.55 3.911-3.445 3.911-.793 0-1.059-.563-1.071-1.235-.044-2.38 3.352-8.548 3.25-13.964-.039-2.103-1.6-3.361-3.562-3.361-1.03 0-2.675.241-4.213 1.382 0 0 5.984-8.375 17.863-8.375" id="Fill-37" fill="#cf102d"/><path d="M174.888 37.9c.993 0 1.02 1.36.958 2.222-.165 2.317-1.544 5.034-5.01 5.42.437-3.876 2.166-7.643 4.052-7.643zm41.652 0c.715 0 .91.913.921 1.536.064 3.414-2.105 5.917-5.019 6.102.438-3.875 2.074-7.639 4.098-7.639zm-58.17-9.557l62.454.002c3.414 0 6.128-2.818 6.063-6.298 0 0-.012-.276-.03-.413-.056-.47-.712-.84-.975-.457-.74 1.084-3.279 1.083-4.905 1.083l-62.688-.011c-10.462 0-19.336 12.443-21.386 15.054 1.002-2.874 3-8.91 2.956-11.246-.1-5.377-6.341-5.653-9.467-4.46-.342.132-.213.69.149.76 1.043.203 3.041.975 2.307 3.91-.063.448-8.315 30.576-8.315 30.576a.497.497 0 00.47.63h5.842a.466.466 0 00.449-.342c.573-2.033 2.914-10.222 2.942-10.298 1.51-4.155 3.705-6.887 5.551-6.887.863 0 1.294.506 1.305 1.096.025 1.363-1.899 7.322-2.698 10.42-1.015 3.936 1.341 6.704 5.123 6.704 3.95 0 5.683-2.032 7.773-5.982.873-1.651 4.299-11.484 4.93-13.546.653.147 1.7.277 2.538.34-.025.091-1.063 4.166-1.44 5.697-.395 1.615-.83 3.193-.858 4.904-.042 2.45.806 5.135 3.744 5.135 3.191 0 5.204-2.102 6.36-3.57.69 1.54 2.55 3.569 5.593 3.569 3.045 0 5.568-1.151 7.41-3.507l-.759 2.725a.456.456 0 00.433.577h4.264a.432.432 0 00.416-.321l3.18-11.665c.615-1.63 2.597-3.024 3.695-3.024.528 0 .834.326.648 1.12l-3.496 13.316a.457.457 0 00.434.574h4.269a.433.433 0 00.416-.321l3.062-11.665c.706-1.569 2.612-3.028 3.704-3.028.501 0 .788.358.61 1.125a2295.4 2295.4 0 01-1.38 5.228c-1.82 6.832-.122 8.854 3.424 8.854 2.501 0 4.534-1.362 5.816-3.149 1.052 2.495 3.426 3.17 5.547 3.17 4.481 0 6.767-2.993 7.765-4.499.157-.236.108-.583-.075-.727a6.581 6.581 0 00-.64-.444c-.214-.134-.51-.1-.633.051-1.091 1.358-2.43 2.52-4.889 2.52-2.16 0-2.97-2.226-2.998-3.75-.005-.24.005-.39.029-.582 6.126 0 8.932-3.966 8.877-6.905-.044-2.35-1.228-4.739-4.677-4.739-5.932 0-9.31 6.515-9.214 11.597.005.304.091 1.767.228 2.46-.557.74-1.708 1.64-2.725 1.64-.996 0-1.239-1.093-1.112-2.356.357-3.511 1.97-7.53 1.92-10.21-.022-1.136-.583-3.117-3.275-3.117-2.207 0-4.53 1.353-5.953 3.139-.122-1.156-.266-3.139-3.044-3.139-1.38 0-3.62.72-5.435 2.758l.542-1.968a.457.457 0 00-.434-.578h-4.033a.432.432 0 00-.416.32s-2.364 8.6-2.434 8.848c-2.58 6.079-5.43 6.592-7.573 6.592-1.982 0-3.019-2.368-2.856-4.34 5.096 0 8.929-3.006 8.854-6.988-.047-2.548-1.423-4.654-4.803-4.654-6.486 0-9.116 7.808-9.043 11.72.012.638.072 1.284.146 1.773-.212.407-1.295 1.65-2.592 1.65-1.942 0-1.91-4.513 1.172-13.803l.135-.338a.424.424 0 00-.394-.583c-1.35.021-5.142.405-7.261-.404.006-.036.699-3.342-2.71-3.342-1.65 0-2.859 1.079-2.833 2.496.04 2.078 1.575 2.895 2.478 3.295-1.445 4.367-2.96 8.642-4.396 11.87-1.364 3.068-2.55 3.911-3.445 3.911-.793 0-1.059-.563-1.071-1.235-.044-2.38 3.352-8.548 3.25-13.964-.039-2.103-1.6-3.361-3.562-3.361-1.03 0-2.675.241-4.213 1.382 0 0 5.984-8.375 17.863-8.375z" id="Stroke-38" stroke="#FFFFFE" stroke-width="3.772"/><path d="M75.499 28.343l45.309.006c3.413 0 6.128-2.822 6.063-6.302 0 0-.013-.276-.029-.414-.058-.469-.664-.933-.976-.455-.655 1.004-2.671 1.081-4.297 1.081H75.48a5.12 5.12 0 01.98 3.044c0 1.206-.467 2.399-.961 3.04" id="Fill-40" fill="#cf102d"/><path d="M75.499 28.343l45.309.006c3.413 0 6.128-2.822 6.063-6.302 0 0-.013-.276-.029-.414-.058-.469-.664-.933-.976-.455-.655 1.004-2.671 1.081-4.297 1.081H75.48a5.12 5.12 0 01.98 3.044c0 1.206-.467 2.399-.961 3.04z" id="Stroke-41" stroke="#FFFFFE" stroke-width="3.772"/><path d="M71.163 28.348a3.055 3.055 0 003.062-3.047 3.055 3.055 0 00-3.062-3.048 3.055 3.055 0 00-3.063 3.048 3.055 3.055 0 003.063 3.047" id="Fill-42" fill="#cf102d"/><path d="M71.163 28.348a3.055 3.055 0 003.062-3.047 3.055 3.055 0 00-3.062-3.048 3.055 3.055 0 00-3.063 3.048 3.055 3.055 0 003.063 3.047z" id="Stroke-43" stroke="#FFFFFE" stroke-width="3.772"/><path d="M107.613 61.093c-.612 0-1.022-.4-1.03-.894-.034-1.786 2.699-2.771 4.5-2.864-.95 2.31-1.634 3.758-3.47 3.758m-9.76-18.497c-.816 4.926-2.33 9.133-4.679 9.133-1.257 0-1.759-1.337-1.237-3.244.699-2.546 1.29-4.85 1.463-5.48.558-2.033 1.549-4.12 3.307-4.12.892 0 1.596 1.003 1.146 3.711m-21.337 10c-.728 0-1.386-.389-1.394-.759-.01-.57.827-.924.802-2.294-.014-.709-.348-1.772-1.016-2.125.466-.71 3.247-5.73 3.533-6.376.092.54.842 2.77.924 7.193.047 2.52-1.38 4.36-2.849 4.36m45.233-16.721h-4.217a.449.449 0 00-.432.333l-2.905 10.533c-.93 3.126-2.17 4.743-3.386 4.743-1.241 0-1.395-1.556-1.097-2.872l3.336-12.138a.474.474 0 00-.45-.6h-4.225a.448.448 0 00-.429.323l-.215.711-1.672 6.167c-.3 1.212-.636 2.34-.926 3.385-.623 2.231-2.406 3.608-2.774 3.872-.719.506-1.436.882-2.159 1.162 1.176-1.777 2.04-4.166 2.586-6.857 1.019-5.034-.122-8.982-3.859-8.982-1.43 0-2.983.428-4.276 2.047l.339-1.247a.461.461 0 00-.437-.58h-3.985a.433.433 0 00-.416.311l-.161.51-2.897 10.663c-.45 1.66-1.613 2.686-2.261 3.15-.45.301-.91.563-1.37.785.74-1.444.811-2.925.8-3.522-.071-3.82-1.617-7.585-1.667-10.241-.024-1.291.383-2.035.671-2.5.157-.252.034-.578-.246-.578l-2.333-.001c-.181 0-.54.052-.755.403-1.058 1.73-4.733 8.372-6.935 11.976-1.45.206-2.82 1.77-2.277 3.51-.223.292-.88 1.13-1.8 1.13-.668 0-.879-1.165-.233-3.62.033-.132.043-.212.043-.212l3.055-11.22a.431.431 0 00-.409-.544H67.43c-.325 0-.715.132-.829.506l-.15.528S63.92 46.27 63.475 47.88c-.446 1.61-1.836 2.91-2.9 2.91-1.92 0-1.842-4.899 1.118-13.813l.135-.338a.425.425 0 00-.394-.583c-1.35.02-5.103.411-7.222-.398.152-.68.256-3.34-2.887-3.34-1.65 0-2.957 1.351-2.67 3.046.251 1.485 1.579 2.32 2.483 2.72-1.478 4.654-3.784 10.693-4.919 13.09-.44.931-1.736 2.743-3.027 2.743-.843 0-.958-.776-.97-1.448-.03-1.648 3.28-8.916 3.244-13.509-.01-1.133-.66-3.635-3.503-3.635-1.828 0-3.086.512-4.31 1.393 0 0 5.782-8.373 17.66-8.373l11.506-.001c-.636-.912-.94-1.882-.963-3.04-.02-1.156.413-2.263.98-3.046l-11.598-.009c-10.462 0-19.137 12.443-21.188 15.054 1.001-2.874 3-8.91 2.956-11.246-.1-5.377-6.341-5.653-9.466-4.46-.343.132-.214.69.148.76 1.044.203 3.04.975 2.307 3.91-.063.448-8.315 30.576-8.315 30.576a.497.497 0 00.471.63h5.841a.466.466 0 00.449-.342c.573-2.033 2.914-10.222 2.941-10.297 1.354-3.727 3.506-6.888 5.551-6.888 1.804 0 1.352 1.737.939 3.139-.832 2.823-1.553 5.521-2.334 8.429-1.217 4.515 2.405 6.648 5.527 6.648 4.426 0 6.061-3.194 7.372-5.978 1.47-3.126 4.303-11.486 4.935-13.547.652.147 1.712.272 2.551.333-.025.092-1.081 4.174-1.458 5.705-.396 1.615-.83 3.193-.858 4.904-.037 2.127.781 5.197 3.964 5.197 2.083 0 3.727-.874 4.931-2.252.105-.122.206-.247.307-.373.115.44.307.857.584 1.2.808 1 2.05 1.365 3.374 1.365 2.12 0 4.017-1.437 4.766-2.332.75 1.2 2.303 2.349 5.248 2.349.244 0 .477-.008.705-.021 2.927-.133 6.08-1.094 8.334-2.67l-2.25 8.294c-.086.315.15.63.473.63h4.172a.472.472 0 00.455-.351l1.969-7.397c.674.985 1.852 1.504 4.352 1.51l.016.002c3.756 0 7.256-1.437 9.46-3.834.272 2.332 1.997 3.826 3.722 3.821 1.07-.003 2.876-.139 4.333-1.848 0 0-.556 2.007-.754 2.522-4.626 0-8.091 2.526-8.04 5.267.036 1.879 2.15 3.231 4.45 3.231 5.31 0 6.947-3.503 8.103-6.19.76.12 2.76.65 3.312.791a.417.417 0 00.507-.298l.276-.833c.064-.234-.02-.572-.252-.635l-3.203-.88 5.278-19.37a.475.475 0 00-.45-.6" id="Fill-44" fill="#cf102d"/><path d="M107.613 61.093c-.612 0-1.022-.4-1.03-.894-.034-1.786 2.699-2.771 4.5-2.864-.95 2.31-1.634 3.758-3.47 3.758zm-9.76-18.497c-.816 4.926-2.33 9.133-4.679 9.133-1.257 0-1.759-1.337-1.237-3.244.699-2.546 1.29-4.85 1.463-5.48.558-2.033 1.549-4.12 3.307-4.12.892 0 1.596 1.003 1.146 3.711zm-21.337 10c-.728 0-1.386-.389-1.394-.759-.01-.57.827-.924.802-2.294-.014-.709-.348-1.772-1.016-2.125.466-.71 3.247-5.73 3.533-6.376.092.54.842 2.77.924 7.193.047 2.52-1.38 4.36-2.849 4.36zm45.233-16.722h-4.217a.449.449 0 00-.432.333l-2.905 10.533c-.93 3.126-2.17 4.743-3.386 4.743-1.241 0-1.395-1.556-1.097-2.872l3.336-12.138a.474.474 0 00-.45-.6h-4.225a.448.448 0 00-.429.323l-.215.711-1.672 6.167c-.3 1.212-.636 2.34-.926 3.385h0c-.623 2.231-2.406 3.608-2.774 3.872-.719.506-1.436.882-2.159 1.162 1.176-1.777 2.04-4.166 2.586-6.857 1.019-5.034-.122-8.982-3.859-8.982-1.43 0-2.983.428-4.276 2.047l.339-1.247a.461.461 0 00-.437-.58h-3.985a.433.433 0 00-.416.311l-.161.51-2.897 10.663c-.45 1.66-1.613 2.686-2.261 3.15-.45.301-.91.563-1.37.785.74-1.444.811-2.925.8-3.522-.071-3.82-1.617-7.585-1.667-10.241-.024-1.291.383-2.035.671-2.5.157-.252.034-.578-.246-.578l-2.333-.001c-.181 0-.54.052-.755.403-1.058 1.73-4.733 8.372-6.935 11.976-1.45.206-2.82 1.77-2.277 3.51-.223.292-.88 1.13-1.8 1.13-.668 0-.879-1.165-.233-3.62.033-.132.043-.212.043-.212l3.055-11.22a.431.431 0 00-.409-.544H67.43c-.325 0-.715.132-.829.506l-.15.528S63.92 46.27 63.475 47.88c-.446 1.61-1.836 2.91-2.9 2.91-1.92 0-1.842-4.899 1.118-13.813l.135-.338a.425.425 0 00-.394-.583c-1.35.02-5.103.411-7.222-.398.152-.68.256-3.34-2.887-3.34-1.65 0-2.957 1.351-2.67 3.046.251 1.485 1.579 2.32 2.483 2.72-1.478 4.654-3.784 10.693-4.919 13.09-.44.931-1.736 2.743-3.027 2.743-.843 0-.958-.776-.97-1.448-.03-1.648 3.28-8.916 3.244-13.509-.01-1.133-.66-3.635-3.503-3.635-1.828 0-3.086.512-4.31 1.393 0 0 5.782-8.373 17.66-8.373l11.506-.001c-.636-.912-.94-1.882-.963-3.04-.02-1.156.413-2.263.98-3.046l-11.598-.009c-10.462 0-19.137 12.443-21.188 15.054 1.001-2.874 3-8.91 2.956-11.246-.1-5.377-6.341-5.653-9.466-4.46-.343.132-.214.69.148.76 1.044.203 3.04.975 2.307 3.91-.063.448-8.315 30.576-8.315 30.576a.497.497 0 00.471.63h5.841a.466.466 0 00.449-.342c.573-2.033 2.914-10.222 2.941-10.297 1.354-3.727 3.506-6.888 5.551-6.888 1.804 0 1.352 1.737.939 3.139-.832 2.823-1.553 5.521-2.334 8.429-1.217 4.515 2.405 6.648 5.527 6.648 4.426 0 6.061-3.194 7.372-5.978 1.47-3.126 4.303-11.486 4.935-13.547.652.147 1.712.272 2.551.333-.025.092-1.081 4.174-1.458 5.705-.396 1.615-.83 3.193-.858 4.904-.037 2.127.781 5.197 3.964 5.197 2.083 0 3.727-.874 4.931-2.252.105-.122.206-.247.307-.373.115.44.307.857.584 1.2.808 1 2.05 1.365 3.374 1.365 2.12 0 4.017-1.437 4.766-2.332.75 1.2 2.303 2.349 5.248 2.349.244 0 .477-.008.705-.021 2.927-.133 6.08-1.094 8.334-2.67l-2.25 8.294c-.086.315.15.63.473.63h4.172a.472.472 0 00.455-.351l1.969-7.397c.674.985 1.852 1.504 4.352 1.51l.016.002c3.756 0 7.256-1.437 9.46-3.834.272 2.332 1.997 3.826 3.722 3.821 1.07-.003 2.876-.139 4.333-1.848 0 0-.556 2.007-.754 2.522-4.626 0-8.091 2.526-8.04 5.267.036 1.879 2.15 3.231 4.45 3.231 5.31 0 6.947-3.503 8.103-6.19.76.12 2.76.65 3.312.791a.417.417 0 00.507-.298l.276-.833c.064-.234-.02-.572-.252-.635l-3.203-.88 5.278-19.37a.475.475 0 00-.45-.6z" id="Stroke-45" stroke="#FFFFFE" stroke-width="3.772"/><path d="M25.134 76.125c-5.515 0-8.832-2.434-9.994-7.453C9.4 43.886 2.713 14.318.287 3.729-.162 1.77 1.457-.041 3.47.186L121.155 13.47 239.282.189c2.014-.227 3.646 1.589 3.183 3.543-2.486 10.51-9.544 40.193-15.368 64.94-1.18 5.015-4.435 7.453-9.951 7.453H25.134" id="Fill-46" fill="#006938"/><path d="M216.895 71.968c3.62.033 5.266-.955 6.039-4.24 7.327-31.133 14.957-63.209 14.957-63.209L121.16 17.652 4.704 4.517s7.116 32.078 14.443 63.211c.773 3.285 2.462 4.284 6.082 4.25l191.666-.01" id="Fill-47" fill="#FFFFFE"/><path d="M194.523 76.192c0 3.643-3.073 6.597-6.864 6.597H54.613c-3.79 0-6.864-2.954-6.864-6.597v-3.298c0-3.643 3.073-6.596 6.864-6.596H187.66c3.79 0 6.864 2.953 6.864 6.596v3.298" id="Fill-48" fill="#006938"/><path d="M62.593 77.067c1.424 0 2.458-1.11 2.458-2.535 0-1.41-1.034-2.522-2.458-2.522h-1.21v5.057h1.21zm-3.176-6.656c0-.124.101-.237.227-.237h3.075c2.432 0 4.423 1.96 4.423 4.358 0 2.423-1.99 4.383-4.423 4.383h-3.075c-.126 0-.227-.112-.227-.237V70.41z" id="Fill-49" fill="#FFFFFE"/><path d="M62.593 77.067c1.424 0 2.458-1.11 2.458-2.535 0-1.41-1.034-2.522-2.458-2.522h-1.21v5.057h1.21zm-3.176-6.656c0-.124.101-.237.227-.237h3.075c2.432 0 4.423 1.96 4.423 4.358 0 2.423-1.99 4.383-4.423 4.383h-3.075c-.126 0-.227-.112-.227-.237V70.41z" id="Stroke-50" stroke="#FFFFFE" stroke-width=".698" stroke-linecap="round" stroke-linejoin="round"/><path d="M78.38 77.042c1.387 0 2.521-1.124 2.521-2.485a2.527 2.527 0 00-2.52-2.51 2.525 2.525 0 00-2.508 2.51c0 1.361 1.134 2.485 2.507 2.485m0-6.993c2.521 0 4.537 2.01 4.537 4.508s-2.016 4.483-4.537 4.483c-2.52 0-4.524-1.985-4.524-4.483a4.497 4.497 0 014.524-4.508" id="Fill-51" fill="#FFFFFE"/><path d="M78.38 77.042c1.387 0 2.521-1.124 2.521-2.485a2.527 2.527 0 00-2.52-2.51 2.525 2.525 0 00-2.508 2.51c0 1.361 1.134 2.485 2.507 2.485zm0-6.993c2.521 0 4.537 2.01 4.537 4.508s-2.016 4.483-4.537 4.483c-2.52 0-4.524-1.985-4.524-4.483a4.497 4.497 0 014.524-4.508z" id="Stroke-52" stroke="#FFFFFE" stroke-width=".698" stroke-linecap="round" stroke-linejoin="round"/><path d="M90.085 70.411c0-.124.113-.236.24-.236h1.55c.138 0 .239.112.239.236v5.058c0 .874.655 1.574 1.55 1.574.907 0 1.575-.7 1.575-1.574v-5.058c0-.124.101-.236.24-.236h1.55c.126 0 .24.112.24.236v5.157c0 1.899-1.614 3.473-3.605 3.473-1.979 0-3.58-1.574-3.58-3.473v-5.157" id="Fill-53" fill="#FFFFFE"/><path d="M90.085 70.411c0-.124.113-.236.24-.236h1.55c.138 0 .239.112.239.236v5.058c0 .874.655 1.574 1.55 1.574.907 0 1.575-.7 1.575-1.574v-5.058c0-.124.101-.236.24-.236h1.55c.126 0 .24.112.24.236v5.157c0 1.899-1.614 3.473-3.605 3.473-1.979 0-3.58-1.574-3.58-3.473v-5.157z" id="Stroke-54" stroke="#FFFFFE" stroke-width=".698" stroke-linecap="round" stroke-linejoin="round"/><path d="M108.952 70.062c1.06 0 2.218.437 3.075 1.174.114.087.126.237.026.337l-.996 1.049a.27.27 0 01-.34.012c-.479-.437-1.033-.599-1.65-.599-1.375 0-2.484 1.149-2.484 2.522a2.5 2.5 0 002.495 2.485 3 3 0 001.122-.2v-.724h-.794c-.138 0-.24-.1-.24-.225v-1.235c0-.138.102-.238.24-.238h2.534c.126 0 .226.112.226.238l.013 3.358c0 .062-.05.163-.101.2 0 0-1.298.812-3.126.812-2.507 0-4.524-1.973-4.524-4.471 0-2.497 2.017-4.495 4.524-4.495" id="Fill-55" fill="#FFFFFE"/><path d="M108.952 70.062c1.06 0 2.218.437 3.075 1.174.114.087.126.237.026.337l-.996 1.049a.27.27 0 01-.34.012c-.479-.437-1.033-.599-1.65-.599-1.375 0-2.484 1.149-2.484 2.522a2.5 2.5 0 002.495 2.485 3 3 0 001.122-.2v-.724h-.794c-.138 0-.24-.1-.24-.225v-1.235c0-.138.102-.238.24-.238h2.534c.126 0 .226.112.226.238l.013 3.358c0 .062-.05.163-.101.2 0 0-1.298.812-3.126.812-2.507 0-4.524-1.973-4.524-4.471 0-2.497 2.017-4.495 4.524-4.495z" id="Stroke-56" stroke="#FFFFFE" stroke-width=".698" stroke-linecap="round" stroke-linejoin="round"/><path d="M119.749 70.411c0-.124.113-.236.239-.236h1.5c.138 0 .24.112.24.236v3.148h3.603V70.41c0-.124.1-.236.24-.236h1.5c.125 0 .239.112.239.236v8.267a.246.246 0 01-.239.237h-1.5a.238.238 0 01-.24-.237v-3.284h-3.604v3.284a.238.238 0 01-.24.237h-1.5a.246.246 0 01-.238-.237V70.41" id="Fill-57" fill="#FFFFFE"/><path d="M119.749 70.411c0-.124.113-.236.239-.236h1.5c.138 0 .24.112.24.236v3.148h3.603V70.41c0-.124.1-.236.24-.236h1.5c.125 0 .239.112.239.236v8.267a.246.246 0 01-.239.237h-1.5a.238.238 0 01-.24-.237v-3.284h-3.604v3.284a.238.238 0 01-.24.237h-1.5a.246.246 0 01-.238-.237V70.41z" id="Stroke-58" stroke="#FFFFFE" stroke-width=".698" stroke-linecap="round" stroke-linejoin="round"/><path d="M135.177 70.274c0-.125.112-.225.24-.225h.314l5.029 4.795h.012v-4.433c0-.124.101-.236.24-.236h1.512c.126 0 .24.112.24.236v8.404c0 .125-.114.226-.24.226h-.202a.368.368 0 01-.163-.063l-4.979-4.958h-.012v4.658c0 .125-.1.237-.24.237h-1.5a.247.247 0 01-.239-.237l-.012-8.404" id="Fill-59" fill="#FFFFFE"/><path d="M135.177 70.274c0-.125.112-.225.24-.225h.314l5.029 4.795h.012v-4.433c0-.124.101-.236.24-.236h1.512c.126 0 .24.112.24.236v8.404c0 .125-.114.226-.24.226h-.202a.368.368 0 01-.163-.063l-4.979-4.958h-.012v4.658c0 .125-.1.237-.24.237h-1.5a.247.247 0 01-.239-.237l-.012-8.404z" id="Stroke-60" stroke="#FFFFFE" stroke-width=".698" stroke-linecap="round" stroke-linejoin="round"/><path d="M150.547 70.411c0-.124.114-.236.24-.236h1.55c.139 0 .239.112.239.236v5.058c0 .874.656 1.574 1.55 1.574.907 0 1.575-.7 1.575-1.574v-5.058c0-.124.101-.236.24-.236h1.551c.125 0 .239.112.239.236v5.157c0 1.899-1.613 3.473-3.605 3.473-1.978 0-3.58-1.574-3.58-3.473v-5.157" id="Fill-61" fill="#FFFFFE"/><path d="M150.547 70.411c0-.124.114-.236.24-.236h1.55c.139 0 .239.112.239.236v5.058c0 .874.656 1.574 1.55 1.574.907 0 1.575-.7 1.575-1.574v-5.058c0-.124.101-.236.24-.236h1.551c.125 0 .239.112.239.236v5.157c0 1.899-1.613 3.473-3.605 3.473-1.978 0-3.58-1.574-3.58-3.473v-5.157z" id="Stroke-62" stroke="#FFFFFE" stroke-width=".698" stroke-linecap="round" stroke-linejoin="round"/><path d="M166.594 72.01h-1.802a.239.239 0 01-.239-.237V70.41c0-.124.1-.237.24-.237h5.595c.139 0 .24.113.24.237v1.362a.239.239 0 01-.24.237h-1.803v6.668a.247.247 0 01-.24.237h-1.51a.246.246 0 01-.24-.237V72.01" id="Fill-63" fill="#FFFFFE"/><path d="M166.594 72.01h-1.802a.239.239 0 01-.239-.237V70.41c0-.124.1-.237.24-.237h5.595c.139 0 .24.113.24.237v1.362a.239.239 0 01-.24.237h-1.803v6.668a.247.247 0 01-.24.237h-1.51a.246.246 0 01-.24-.237V72.01z" id="Stroke-64" stroke="#FFFFFE" stroke-width=".698" stroke-linecap="round" stroke-linejoin="round"/><path d="M177.276 77.73l.592-1.037c.1-.163.34-.138.428-.075.051.024.958.687 1.79.687.504 0 .87-.313.87-.75 0-.525-.442-.924-1.298-1.261-1.084-.425-2.445-1.262-2.445-2.76 0-1.236.97-2.485 2.911-2.485 1.31 0 2.319.662 2.697.937.151.087.126.312.076.4l-.644.961c-.088.138-.314.25-.427.162-.114-.062-1.035-.75-1.803-.75-.454 0-.794.3-.794.638 0 .462.378.812 1.373 1.211.983.387 2.546 1.15 2.546 2.847 0 1.286-1.121 2.585-2.974 2.585-1.638 0-2.545-.674-2.836-.961-.125-.125-.164-.175-.062-.35" id="Fill-65" fill="#FFFFFE"/><path d="M177.276 77.73l.592-1.037c.1-.163.34-.138.428-.075.051.024.958.687 1.79.687.504 0 .87-.313.87-.75 0-.525-.442-.924-1.298-1.261-1.084-.425-2.445-1.262-2.445-2.76 0-1.236.97-2.485 2.911-2.485 1.31 0 2.319.662 2.697.937.151.087.126.312.076.4l-.644.961c-.088.138-.314.25-.427.162-.114-.062-1.035-.75-1.803-.75-.454 0-.794.3-.794.638 0 .462.378.812 1.373 1.211.983.387 2.546 1.15 2.546 2.847 0 1.286-1.121 2.585-2.974 2.585-1.638 0-2.545-.674-2.836-.961-.125-.125-.164-.175-.062-.35z" id="Stroke-66" stroke="#FFFFFE" stroke-width=".698" stroke-linecap="round" stroke-linejoin="round"/><path d="M174.888 37.9c.993 0 1.02 1.36.958 2.222-.165 2.317-1.544 5.034-5.01 5.42.437-3.876 2.166-7.643 4.052-7.643m41.652 0c.715 0 .91.914.921 1.537.064 3.414-2.105 5.917-5.019 6.102.438-3.875 2.074-7.639 4.098-7.639m-58.17-9.556l62.454.002c3.414 0 6.128-2.818 6.063-6.298 0 0-.012-.276-.03-.413-.056-.47-.712-.84-.975-.457-.74 1.084-3.279 1.083-4.905 1.083l-62.688-.011c-10.462 0-19.336 12.443-21.386 15.054 1.002-2.874 3-8.91 2.956-11.246-.1-5.377-6.341-5.653-9.467-4.46-.342.132-.213.69.149.76 1.043.203 3.041.975 2.307 3.91-.063.448-8.315 30.576-8.315 30.576a.497.497 0 00.47.63h5.842a.466.466 0 00.449-.342c.573-2.033 2.914-10.222 2.942-10.298 1.51-4.155 3.705-6.887 5.551-6.887.863 0 1.294.506 1.305 1.096.025 1.363-1.899 7.322-2.698 10.42-1.015 3.936 1.341 6.704 5.123 6.704 3.95 0 5.683-2.032 7.773-5.982.873-1.651 4.299-11.484 4.93-13.546.653.147 1.7.277 2.538.34-.025.091-1.063 4.166-1.44 5.697-.395 1.615-.83 3.193-.858 4.904-.042 2.45.806 5.135 3.744 5.135 3.191 0 5.204-2.102 6.36-3.57.69 1.54 2.55 3.569 5.593 3.569 3.045 0 5.568-1.151 7.41-3.507l-.759 2.725a.456.456 0 00.433.577h4.264a.432.432 0 00.416-.321l3.18-11.665c.615-1.63 2.597-3.024 3.695-3.024.528 0 .834.326.648 1.12l-3.496 13.316a.457.457 0 00.434.574h4.269a.433.433 0 00.416-.321l3.062-11.665c.706-1.569 2.612-3.028 3.704-3.028.501 0 .788.358.61 1.125a2295.4 2295.4 0 01-1.38 5.228c-1.82 6.832-.122 8.854 3.424 8.854 2.501 0 4.534-1.362 5.816-3.149 1.052 2.495 3.426 3.17 5.547 3.17 4.481 0 6.767-2.993 7.765-4.499.157-.236.108-.583-.075-.727a6.581 6.581 0 00-.64-.444c-.214-.134-.51-.1-.633.051-1.091 1.358-2.43 2.52-4.889 2.52-2.16 0-2.97-2.226-2.998-3.75-.005-.24.005-.39.029-.582 6.126 0 8.932-3.966 8.877-6.905-.044-2.35-1.228-4.739-4.677-4.739-5.932 0-9.31 6.515-9.214 11.597.005.304.091 1.767.228 2.46-.557.74-1.708 1.64-2.725 1.64-.996 0-1.239-1.093-1.112-2.356.357-3.511 1.97-7.53 1.92-10.21-.022-1.136-.583-3.117-3.275-3.117-2.207 0-4.53 1.353-5.953 3.139-.122-1.156-.266-3.139-3.044-3.139-1.38 0-3.62.72-5.435 2.758l.542-1.968a.457.457 0 00-.434-.578h-4.033a.432.432 0 00-.416.32s-2.364 8.6-2.434 8.848c-2.58 6.079-5.43 6.592-7.573 6.592-1.982 0-3.019-2.368-2.856-4.34 5.096 0 8.929-3.006 8.854-6.988-.047-2.548-1.423-4.654-4.803-4.654-6.486 0-9.116 7.808-9.043 11.72.012.638.072 1.284.146 1.773-.212.407-1.295 1.65-2.592 1.65-1.942 0-1.91-4.513 1.172-13.803l.135-.338a.424.424 0 00-.394-.583c-1.35.021-5.142.405-7.261-.404.006-.036.699-3.342-2.71-3.342-1.65 0-2.859 1.079-2.833 2.496.04 2.078 1.575 2.895 2.478 3.295-1.445 4.367-2.96 8.642-4.396 11.87-1.364 3.068-2.55 3.911-3.445 3.911-.793 0-1.059-.563-1.071-1.235-.044-2.38 3.352-8.548 3.25-13.964-.039-2.103-1.6-3.361-3.562-3.361-1.03 0-2.675.241-4.213 1.382 0 0 5.984-8.375 17.863-8.375" id="Fill-67" fill="#cf102d"/><path d="M75.499 28.343l45.309.006c3.413 0 6.128-2.822 6.063-6.302 0 0-.013-.276-.029-.414-.058-.469-.664-.933-.976-.455-.655 1.004-2.671 1.081-4.297 1.081H75.48a5.12 5.12 0 01.98 3.044c0 1.206-.467 2.399-.961 3.04" id="Fill-68" fill="#cf102d"/><path d="M71.163 28.348a3.055 3.055 0 003.062-3.047 3.055 3.055 0 00-3.062-3.048 3.055 3.055 0 00-3.063 3.048 3.055 3.055 0 003.063 3.047" id="Fill-69" fill="#cf102d"/><path d="M107.613 61.093c-.612 0-1.022-.4-1.03-.894-.034-1.786 2.699-2.771 4.5-2.864-.95 2.31-1.634 3.758-3.47 3.758m-9.76-18.497c-.816 4.926-2.33 9.133-4.679 9.133-1.257 0-1.759-1.337-1.237-3.244.699-2.546 1.29-4.85 1.463-5.48.558-2.033 1.549-4.12 3.307-4.12.892 0 1.596 1.003 1.146 3.711m-21.337 10c-.728 0-1.386-.389-1.394-.759-.01-.57.827-.924.802-2.294-.014-.709-.348-1.772-1.016-2.125.466-.71 3.247-5.73 3.533-6.376.092.54.842 2.77.924 7.193.047 2.52-1.38 4.36-2.849 4.36m45.233-16.721h-4.217a.449.449 0 00-.432.333l-2.905 10.533c-.93 3.126-2.17 4.743-3.386 4.743-1.241 0-1.395-1.556-1.097-2.872l3.336-12.138a.474.474 0 00-.45-.6h-4.225a.448.448 0 00-.429.323l-.215.711-1.672 6.167c-.3 1.212-.636 2.34-.926 3.385-.623 2.231-2.406 3.608-2.774 3.872-.719.506-1.436.882-2.159 1.162 1.176-1.777 2.04-4.166 2.586-6.857 1.019-5.034-.122-8.982-3.859-8.982-1.43 0-2.983.428-4.276 2.047l.339-1.247a.461.461 0 00-.437-.58h-3.985a.433.433 0 00-.416.311l-.161.51-2.897 10.663c-.45 1.66-1.613 2.686-2.261 3.15-.45.301-.91.563-1.37.785.74-1.444.811-2.925.8-3.522-.071-3.82-1.617-7.585-1.667-10.241-.024-1.291.383-2.035.671-2.5.157-.252.034-.578-.246-.578l-2.333-.001c-.181 0-.54.052-.755.403-1.058 1.73-4.733 8.372-6.935 11.976-1.45.206-2.82 1.77-2.277 3.51-.223.292-.88 1.13-1.8 1.13-.668 0-.879-1.165-.233-3.62.033-.132.043-.212.043-.212l3.055-11.22a.431.431 0 00-.409-.544H67.43c-.325 0-.715.132-.829.506l-.15.528S63.92 46.27 63.475 47.88c-.446 1.61-1.836 2.91-2.9 2.91-1.92 0-1.842-4.899 1.118-13.813l.135-.338a.425.425 0 00-.394-.583c-1.35.02-5.103.411-7.222-.398.152-.68.256-3.34-2.887-3.34-1.65 0-2.957 1.351-2.67 3.046.251 1.485 1.579 2.32 2.483 2.72-1.478 4.654-3.784 10.693-4.919 13.09-.44.931-1.736 2.743-3.027 2.743-.843 0-.958-.776-.97-1.448-.03-1.648 3.28-8.916 3.244-13.509-.01-1.133-.66-3.635-3.503-3.635-1.828 0-3.086.512-4.31 1.393 0 0 5.782-8.373 17.66-8.373l11.506-.001c-.636-.912-.94-1.882-.963-3.04-.02-1.156.413-2.263.98-3.046l-11.598-.009c-10.462 0-19.137 12.443-21.188 15.054 1.001-2.874 3-8.91 2.956-11.246-.1-5.377-6.341-5.653-9.466-4.46-.343.132-.214.69.148.76 1.044.203 3.04.975 2.307 3.91-.063.448-8.315 30.576-8.315 30.576a.497.497 0 00.471.63h5.841a.466.466 0 00.449-.342c.573-2.033 2.914-10.222 2.941-10.297 1.354-3.727 3.506-6.888 5.551-6.888 1.804 0 1.352 1.737.939 3.139-.832 2.823-1.553 5.521-2.334 8.429-1.217 4.515 2.405 6.648 5.527 6.648 4.426 0 6.061-3.194 7.372-5.978 1.47-3.126 4.303-11.486 4.935-13.547.652.147 1.712.272 2.551.333-.025.092-1.081 4.174-1.458 5.705-.396 1.615-.83 3.193-.858 4.904-.037 2.127.781 5.197 3.964 5.197 2.083 0 3.727-.874 4.931-2.252.105-.122.206-.247.307-.373.115.44.307.857.584 1.2.808 1 2.05 1.365 3.374 1.365 2.12 0 4.017-1.437 4.766-2.332.75 1.2 2.303 2.349 5.248 2.349.244 0 .477-.008.705-.021 2.927-.133 6.08-1.094 8.334-2.67l-2.25 8.294c-.086.315.15.63.473.63h4.172a.472.472 0 00.455-.351l1.969-7.397c.674.985 1.852 1.504 4.352 1.51l.016.002c3.756 0 7.256-1.437 9.46-3.834.272 2.332 1.997 3.826 3.722 3.821 1.07-.003 2.876-.139 4.333-1.848 0 0-.556 2.007-.754 2.522-4.626 0-8.091 2.526-8.04 5.267.036 1.879 2.15 3.231 4.45 3.231 5.31 0 6.947-3.503 8.103-6.19.76.12 2.76.65 3.312.791a.417.417 0 00.507-.298l.276-.833c.064-.234-.02-.572-.252-.635l-3.203-.88 5.278-19.37a.475.475 0 00-.45-.6" id="Fill-70" fill="#cf102d"/><path d="M229.733 71.481c.01-.038.049-.071.087-.071h.078c.03 0 .074.023.082.052l1.017 2.472h.02l1.01-2.472c.01-.03.05-.052.083-.052h.078c.039 0 .077.033.088.071l.597 3.25c.015.068-.02.112-.087.112h-.316a.1.1 0 01-.092-.068l-.36-2.162h-.015l-.875 2.225c-.01.03-.038.053-.082.053h-.088c-.04 0-.073-.024-.083-.053l-.88-2.225h-.018l-.351 2.162c-.004.034-.048.068-.088.068h-.315c-.068 0-.103-.044-.092-.111l.602-3.25" id="Fill-71" fill="#006938"/><path d="M234.729 74.383c.714 0 1.235-.521 1.235-1.238 0-.711-.521-1.228-1.235-1.228h-.642v2.466h.642zm-1.138-2.834c0-.048.04-.092.088-.092h1.118c.938 0 1.706.76 1.706 1.688 0 .938-.768 1.698-1.706 1.698h-1.118c-.048 0-.088-.044-.088-.092V71.55z" id="Fill-72" fill="#006938"/><path d="M233.041 66.838h-.75v-.972h.789c.243 0 .413.223.413.479 0 .254-.177.493-.452.493m1.088-.556c0-.587-.458-.873-.992-.873l-1.461-.002v3.063h.615v-1.174h.654c.45 0 .505.378.535 1.173h.616c-.035-.558.048-1.077-.51-1.412.367-.15.543-.436.543-.775" id="Fill-73" fill="#006938"/><path d="M232.81 64.586a2.39 2.39 0 00-2.394 2.383 2.389 2.389 0 002.394 2.383 2.39 2.39 0 002.396-2.383 2.39 2.39 0 00-2.396-2.383m2.878 2.389a2.864 2.864 0 01-2.872 2.856 2.864 2.864 0 01-2.87-2.856 2.864 2.864 0 012.87-2.857 2.864 2.864 0 012.872 2.857" id="Fill-74" fill="#006938"/></g></g></g></svg>